#N canvas 558 125 601 414 12;
#X msg 165 87 scan /sdcard/recordings/;
#X floatatom 239 169 5 0 0 0 - - - 0;
#X floatatom 173 310 5 0 0 0 - - - 0;
#X floatatom 257 315 5 0 0 0 - - - 0;
#X symbolatom 341 341 20 0 0 0 - - - 0;
#X msg 216 122 add ddddd.wav;
#X msg 271 369 /sdcard/\$1;
#X obj 271 393 print;
#X obj 340 307 list;
#X obj 174 224 dirlist, f 9;
#X msg 63 42 scan /Users/owen1/repos/dirlist/testdirs;
#X obj 174 267 route total_dirs next_name dirname;
#X msg 38 142 delete 2;
#X connect 0 0 9 0;
#X connect 1 0 9 0;
#X connect 5 0 9 0;
#X connect 6 0 7 0;
#X connect 8 0 4 0;
#X connect 8 0 6 0;
#X connect 9 0 11 0;
#X connect 10 0 9 0;
#X connect 11 0 2 0;
#X connect 11 1 3 0;
#X connect 11 2 8 0;
#X connect 12 0 9 0;
